<?xml version="1.0" encoding="UTF-8" standalone="no"?>
<!DOCTYPE svg PUBLIC "-//W3C//DTD SVG 1.1//EN"
 "http://www.w3.org/Graphics/SVG/1.1/DTD/svg11.dtd">
<!-- Generated by graphviz version 2.44.0 (0)
 -->
<!-- Title: snakemake_dag Pages: 1 -->
<svg width="482pt" height="908pt"
 viewBox="0.00 0.00 481.65 908.00" xmlns="http://www.w3.org/2000/svg" xmlns:xlink="http://www.w3.org/1999/xlink">
<g id="graph0" class="graph" transform="scale(1 1) rotate(0) translate(4 904)">
<title>snakemake_dag</title>
<polygon fill="white" stroke="transparent" points="-4,4 -4,-904 477.65,-904 477.65,4 -4,4"/>
<!-- 0 -->
<g id="node1" class="node">
<title>0</title>
<path fill="none" stroke="#56d88a" stroke-width="2" d="M253,-36C253,-36 223,-36 223,-36 217,-36 211,-30 211,-24 211,-24 211,-12 211,-12 211,-6 217,0 223,0 223,0 253,0 253,0 259,0 265,-6 265,-12 265,-12 265,-24 265,-24 265,-30 259,-36 253,-36"/>
<text text-anchor="middle" x="238" y="-15.5" font-family="sans" font-size="10.00">all</text>
</g>
<!-- 1 -->
<g id="node2" class="node">
<title>1</title>
<path fill="none" stroke="#d88d56" stroke-width="2" d="M233.5,-684C233.5,-684 154.5,-684 154.5,-684 148.5,-684 142.5,-678 142.5,-672 142.5,-672 142.5,-660 142.5,-660 142.5,-654 148.5,-648 154.5,-648 154.5,-648 233.5,-648 233.5,-648 239.5,-648 245.5,-654 245.5,-660 245.5,-660 245.5,-672 245.5,-672 245.5,-678 239.5,-684 233.5,-684"/>
<text text-anchor="middle" x="194" y="-663.5" font-family="sans" font-size="10.00">CloseLongbinFork</text>
</g>
<!-- 1&#45;&gt;0 -->
<g id="edge1" class="edge">
<title>1&#45;&gt;0</title>
<path fill="none" stroke="grey" stroke-width="2" d="M181.98,-647.99C164.99,-622.23 136,-571.2 136,-523 136,-523 136,-523 136,-161 136,-111.82 176.86,-68.01 206.85,-42.48"/>
<polygon fill="grey" stroke="grey" stroke-width="2" points="209.12,-45.15 214.6,-36.08 204.66,-39.75 209.12,-45.15"/>
</g>
<!-- 3 -->
<g id="node4" class="node">
<title>3</title>
<path fill="none" stroke="#d6d856" stroke-width="2" d="M433,-612C433,-612 337,-612 337,-612 331,-612 325,-606 325,-600 325,-600 325,-588 325,-588 325,-582 331,-576 337,-576 337,-576 433,-576 433,-576 439,-576 445,-582 445,-588 445,-588 445,-600 445,-600 445,-606 439,-612 433,-612"/>
<text text-anchor="middle" x="385" y="-591.5" font-family="sans" font-size="10.00">ConvertJGIBamDepth</text>
</g>
<!-- 1&#45;&gt;3 -->
<g id="edge9" class="edge">
<title>1&#45;&gt;3</title>
<path fill="none" stroke="grey" stroke-width="2" d="M240.72,-647.88C267.3,-638.14 300.76,-625.87 328.77,-615.61"/>
<polygon fill="grey" stroke="grey" stroke-width="2" points="330.24,-618.8 338.43,-612.07 327.83,-612.22 330.24,-618.8"/>
</g>
<!-- 8 -->
<g id="node9" class="node">
<title>8</title>
<path fill="none" stroke="#56b9d8" stroke-width="2" d="M253.5,-324C253.5,-324 176.5,-324 176.5,-324 170.5,-324 164.5,-318 164.5,-312 164.5,-312 164.5,-300 164.5,-300 164.5,-294 170.5,-288 176.5,-288 176.5,-288 253.5,-288 253.5,-288 259.5,-288 265.5,-294 265.5,-300 265.5,-300 265.5,-312 265.5,-312 265.5,-318 259.5,-324 253.5,-324"/>
<text text-anchor="middle" x="215" y="-303.5" font-family="sans" font-size="10.00">CopyDAStoolBins</text>
</g>
<!-- 1&#45;&gt;8 -->
<g id="edge15" class="edge">
<title>1&#45;&gt;8</title>
<path fill="none" stroke="grey" stroke-width="2" d="M219.98,-647.9C249.69,-626.65 296.84,-587.34 317,-540 349.31,-464.13 325.13,-423.07 272,-360 263.34,-349.72 252.82,-339.44 243.17,-330.7"/>
<polygon fill="grey" stroke="grey" stroke-width="2" points="245.48,-328.07 235.68,-324.05 240.84,-333.3 245.48,-328.07"/>
</g>
<!-- 9 -->
<g id="node10" class="node">
<title>9</title>
<path fill="none" stroke="#61d856" stroke-width="2" d="M250.5,-396C250.5,-396 177.5,-396 177.5,-396 171.5,-396 165.5,-390 165.5,-384 165.5,-384 165.5,-372 165.5,-372 165.5,-366 171.5,-360 177.5,-360 177.5,-360 250.5,-360 250.5,-360 256.5,-360 262.5,-366 262.5,-372 262.5,-372 262.5,-384 262.5,-384 262.5,-390 256.5,-396 250.5,-396"/>
<text text-anchor="middle" x="214" y="-375.5" font-family="sans" font-size="10.00">DAStoolAnalysis</text>
</g>
<!-- 1&#45;&gt;9 -->
<g id="edge18" class="edge">
<title>1&#45;&gt;9</title>
<path fill="none" stroke="grey" stroke-width="2" d="M191.7,-647.84C186.97,-608.98 177.83,-511.47 193,-432 194.71,-423.06 197.9,-413.7 201.29,-405.37"/>
<polygon fill="grey" stroke="grey" stroke-width="2" points="204.51,-406.73 205.28,-396.17 198.09,-403.95 204.51,-406.73"/>
</g>
<!-- 11 -->
<g id="node12" class="node">
<title>11</title>
<path fill="none" stroke="#56d873" stroke-width="2" d="M296,-540C296,-540 216,-540 216,-540 210,-540 204,-534 204,-528 204,-528 204,-516 204,-516 204,-510 210,-504 216,-504 216,-504 296,-504 296,-504 302,-504 308,-510 308,-516 308,-516 308,-528 308,-528 308,-534 302,-540 296,-540"/>
<text text-anchor="middle" x="256" y="-519.5" font-family="sans" font-size="10.00">Metabat2Analysis</text>
</g>
<!-- 1&#45;&gt;11 -->
<g id="edge20" class="edge">
<title>1&#45;&gt;11</title>
<path fill="none" stroke="grey" stroke-width="2" d="M201.48,-647.87C212.14,-623.46 231.8,-578.43 244.37,-549.64"/>
<polygon fill="grey" stroke="grey" stroke-width="2" points="247.7,-550.75 248.49,-540.19 241.29,-547.95 247.7,-550.75"/>
</g>
<!-- 13 -->
<g id="node14" class="node">
<title>13</title>
<path fill="none" stroke="#567bd8" stroke-width="2" d="M96,-612C96,-612 16,-612 16,-612 10,-612 4,-606 4,-600 4,-600 4,-588 4,-588 4,-582 10,-576 16,-576 16,-576 96,-576 96,-576 102,-576 108,-582 108,-588 108,-588 108,-600 108,-600 108,-606 102,-612 96,-612"/>
<text text-anchor="middle" x="56" y="-591.5" font-family="sans" font-size="10.00">SemiBin2Analysis</text>
</g>
<!-- 1&#45;&gt;13 -->
<g id="edge23" class="edge">
<title>1&#45;&gt;13</title>
<path fill="none" stroke="grey" stroke-width="2" d="M160.24,-647.88C141.78,-638.51 118.72,-626.81 98.98,-616.8"/>
<polygon fill="grey" stroke="grey" stroke-width="2" points="100.39,-613.59 89.89,-612.19 97.22,-619.83 100.39,-613.59"/>
</g>
<!-- 2 -->
<g id="node3" class="node">
<title>2</title>
<path fill="none" stroke="#56d8a9" stroke-width="2" d="M264,-756C264,-756 124,-756 124,-756 118,-756 112,-750 112,-744 112,-744 112,-732 112,-732 112,-726 118,-720 124,-720 124,-720 264,-720 264,-720 270,-720 276,-726 276,-732 276,-732 276,-744 276,-744 276,-750 270,-756 264,-756"/>
<text text-anchor="middle" x="194" y="-741" font-family="sans" font-size="10.00">LongContigsToBins</text>
<text text-anchor="middle" x="194" y="-730" font-family="sans" font-size="10.00">sample: MautF_ReadsOnly_01</text>
</g>
<!-- 2&#45;&gt;1 -->
<g id="edge7" class="edge">
<title>2&#45;&gt;1</title>
<path fill="none" stroke="grey" stroke-width="2" d="M194,-719.7C194,-711.98 194,-702.71 194,-694.11"/>
<polygon fill="grey" stroke="grey" stroke-width="2" points="197.5,-694.1 194,-684.1 190.5,-694.1 197.5,-694.1"/>
</g>
<!-- 3&#45;&gt;0 -->
<g id="edge2" class="edge">
<title>3&#45;&gt;0</title>
<path fill="none" stroke="grey" stroke-width="2" d="M392.69,-575.91C403.79,-549.62 423,-497.45 423,-451 423,-451 423,-451 423,-161 423,-120.55 431.15,-101.98 404,-72 371.05,-35.62 313.19,-24.07 275.23,-20.48"/>
<polygon fill="grey" stroke="grey" stroke-width="2" points="275.33,-16.98 265.08,-19.67 274.77,-23.96 275.33,-16.98"/>
</g>
<!-- 3&#45;&gt;11 -->
<g id="edge21" class="edge">
<title>3&#45;&gt;11</title>
<path fill="none" stroke="grey" stroke-width="2" d="M353.44,-575.88C336.34,-566.6 315.02,-555.03 296.68,-545.08"/>
<polygon fill="grey" stroke="grey" stroke-width="2" points="298.14,-541.88 287.68,-540.19 294.8,-548.04 298.14,-541.88"/>
</g>
<!-- 4 -->
<g id="node5" class="node">
<title>4</title>
<path fill="none" stroke="#88d856" stroke-width="2" d="M414,-684C414,-684 356,-684 356,-684 350,-684 344,-678 344,-672 344,-672 344,-660 344,-660 344,-654 350,-648 356,-648 356,-648 414,-648 414,-648 420,-648 426,-654 426,-660 426,-660 426,-672 426,-672 426,-678 420,-684 414,-684"/>
<text text-anchor="middle" x="385" y="-663.5" font-family="sans" font-size="10.00">JGIBamDepth</text>
</g>
<!-- 4&#45;&gt;3 -->
<g id="edge8" class="edge">
<title>4&#45;&gt;3</title>
<path fill="none" stroke="grey" stroke-width="2" d="M385,-647.7C385,-639.98 385,-630.71 385,-622.11"/>
<polygon fill="grey" stroke="grey" stroke-width="2" points="388.5,-622.1 385,-612.1 381.5,-622.1 388.5,-622.1"/>
</g>
<!-- 16 -->
<g id="node17" class="node">
<title>16</title>
<path fill="none" stroke="#56c9d8" stroke-width="2" d="M382.5,-180C382.5,-180 289.5,-180 289.5,-180 283.5,-180 277.5,-174 277.5,-168 277.5,-168 277.5,-156 277.5,-156 277.5,-150 283.5,-144 289.5,-144 289.5,-144 382.5,-144 382.5,-144 388.5,-144 394.5,-150 394.5,-156 394.5,-156 394.5,-168 394.5,-168 394.5,-174 388.5,-180 382.5,-180"/>
<text text-anchor="middle" x="336" y="-159.5" font-family="sans" font-size="10.00">AssessCheckm2Bins</text>
</g>
<!-- 4&#45;&gt;16 -->
<g id="edge28" class="edge">
<title>4&#45;&gt;16</title>
<path fill="none" stroke="grey" stroke-width="2" d="M416.3,-647.85C429.86,-638.88 444.73,-626.69 454,-612 475.59,-577.8 473,-563.45 473,-523 473,-523 473,-523 473,-305 473,-250.54 420.17,-208.96 380.12,-185.26"/>
<polygon fill="grey" stroke="grey" stroke-width="2" points="381.7,-182.13 371.28,-180.19 378.22,-188.21 381.7,-182.13"/>
</g>
<!-- 5 -->
<g id="node6" class="node">
<title>5</title>
<path fill="none" stroke="#70d856" stroke-width="2" d="M406,-756C406,-756 364,-756 364,-756 358,-756 352,-750 352,-744 352,-744 352,-732 352,-732 352,-726 358,-720 364,-720 364,-720 406,-720 406,-720 412,-720 418,-726 418,-732 418,-732 418,-744 418,-744 418,-750 412,-756 406,-756"/>
<text text-anchor="middle" x="385" y="-735.5" font-family="sans" font-size="10.00">IndexBam</text>
</g>
<!-- 5&#45;&gt;4 -->
<g id="edge10" class="edge">
<title>5&#45;&gt;4</title>
<path fill="none" stroke="grey" stroke-width="2" d="M385,-719.7C385,-711.98 385,-702.71 385,-694.11"/>
<polygon fill="grey" stroke="grey" stroke-width="2" points="388.5,-694.1 385,-684.1 381.5,-694.1 388.5,-694.1"/>
</g>
<!-- 6 -->
<g id="node7" class="node">
<title>6</title>
<path fill="none" stroke="#56d89a" stroke-width="2" d="M358,-828C358,-828 290,-828 290,-828 284,-828 278,-822 278,-816 278,-816 278,-804 278,-804 278,-798 284,-792 290,-792 290,-792 358,-792 358,-792 364,-792 370,-798 370,-804 370,-804 370,-816 370,-816 370,-822 364,-828 358,-828"/>
<text text-anchor="middle" x="324" y="-807.5" font-family="sans" font-size="10.00">MinimapToBam</text>
</g>
<!-- 6&#45;&gt;4 -->
<g id="edge11" class="edge">
<title>6&#45;&gt;4</title>
<path fill="none" stroke="grey" stroke-width="2" d="M325.32,-791.86C327.27,-773.37 331.96,-743.44 343,-720 347.65,-710.12 354.47,-700.43 361.26,-692.08"/>
<polygon fill="grey" stroke="grey" stroke-width="2" points="364.13,-694.11 367.96,-684.24 358.81,-689.57 364.13,-694.11"/>
</g>
<!-- 6&#45;&gt;5 -->
<g id="edge12" class="edge">
<title>6&#45;&gt;5</title>
<path fill="none" stroke="grey" stroke-width="2" d="M339.08,-791.7C346.39,-783.3 355.31,-773.07 363.34,-763.86"/>
<polygon fill="grey" stroke="grey" stroke-width="2" points="366.16,-765.94 370.09,-756.1 360.89,-761.34 366.16,-765.94"/>
</g>
<!-- 6&#45;&gt;13 -->
<g id="edge24" class="edge">
<title>6&#45;&gt;13</title>
<path fill="none" stroke="grey" stroke-width="2" d="M277.66,-803.39C220.48,-795.56 127.78,-779.61 103,-756 66.03,-720.78 57.65,-658.27 56.05,-622.38"/>
<polygon fill="grey" stroke="grey" stroke-width="2" points="59.54,-622.05 55.74,-612.15 52.54,-622.25 59.54,-622.05"/>
</g>
<!-- 7 -->
<g id="node8" class="node">
<title>7</title>
<path fill="none" stroke="#56d863" stroke-width="2" d="M394,-900C394,-900 254,-900 254,-900 248,-900 242,-894 242,-888 242,-888 242,-876 242,-876 242,-870 248,-864 254,-864 254,-864 394,-864 394,-864 400,-864 406,-870 406,-876 406,-876 406,-888 406,-888 406,-894 400,-900 394,-900"/>
<text text-anchor="middle" x="324" y="-885" font-family="sans" font-size="10.00">MinimapIndex</text>
<text text-anchor="middle" x="324" y="-874" font-family="sans" font-size="10.00">sample: MautF_ReadsOnly_01</text>
</g>
<!-- 7&#45;&gt;6 -->
<g id="edge13" class="edge">
<title>7&#45;&gt;6</title>
<path fill="none" stroke="grey" stroke-width="2" d="M324,-863.7C324,-855.98 324,-846.71 324,-838.11"/>
<polygon fill="grey" stroke="grey" stroke-width="2" points="327.5,-838.1 324,-828.1 320.5,-838.1 327.5,-838.1"/>
</g>
<!-- 8&#45;&gt;0 -->
<g id="edge3" class="edge">
<title>8&#45;&gt;0</title>
<path fill="none" stroke="grey" stroke-width="2" d="M216.37,-287.97C220.2,-240.29 231.07,-105.18 235.78,-46.63"/>
<polygon fill="grey" stroke="grey" stroke-width="2" points="239.3,-46.55 236.61,-36.31 232.32,-45.99 239.3,-46.55"/>
</g>
<!-- 14 -->
<g id="node15" class="node">
<title>14</title>
<path fill="none" stroke="#56d8c1" stroke-width="2" d="M349.5,-252C349.5,-252 254.5,-252 254.5,-252 248.5,-252 242.5,-246 242.5,-240 242.5,-240 242.5,-228 242.5,-228 242.5,-222 248.5,-216 254.5,-216 254.5,-216 349.5,-216 349.5,-216 355.5,-216 361.5,-222 361.5,-228 361.5,-228 361.5,-240 361.5,-240 361.5,-246 355.5,-252 349.5,-252"/>
<text text-anchor="middle" x="302" y="-231.5" font-family="sans" font-size="10.00">Checkm2BinAnalysis</text>
</g>
<!-- 8&#45;&gt;14 -->
<g id="edge26" class="edge">
<title>8&#45;&gt;14</title>
<path fill="none" stroke="grey" stroke-width="2" d="M236.51,-287.7C247.46,-278.88 260.95,-268.03 272.82,-258.47"/>
<polygon fill="grey" stroke="grey" stroke-width="2" points="275.14,-261.1 280.74,-252.1 270.76,-255.65 275.14,-261.1"/>
</g>
<!-- 9&#45;&gt;8 -->
<g id="edge14" class="edge">
<title>9&#45;&gt;8</title>
<path fill="none" stroke="grey" stroke-width="2" d="M214.25,-359.7C214.36,-351.98 214.49,-342.71 214.61,-334.11"/>
<polygon fill="grey" stroke="grey" stroke-width="2" points="218.11,-334.15 214.76,-324.1 211.11,-334.05 218.11,-334.15"/>
</g>
<!-- 10 -->
<g id="node11" class="node">
<title>10</title>
<path fill="none" stroke="#566bd8" stroke-width="2" d="M298,-468C298,-468 214,-468 214,-468 208,-468 202,-462 202,-456 202,-456 202,-444 202,-444 202,-438 208,-432 214,-432 214,-432 298,-432 298,-432 304,-432 310,-438 310,-444 310,-444 310,-456 310,-456 310,-462 304,-468 298,-468"/>
<text text-anchor="middle" x="256" y="-447.5" font-family="sans" font-size="10.00">DASinputMetabat2</text>
</g>
<!-- 10&#45;&gt;9 -->
<g id="edge16" class="edge">
<title>10&#45;&gt;9</title>
<path fill="none" stroke="grey" stroke-width="2" d="M245.62,-431.7C240.74,-423.56 234.81,-413.69 229.42,-404.7"/>
<polygon fill="grey" stroke="grey" stroke-width="2" points="232.41,-402.88 224.26,-396.1 226.41,-406.48 232.41,-402.88"/>
</g>
<!-- 11&#45;&gt;10 -->
<g id="edge19" class="edge">
<title>11&#45;&gt;10</title>
<path fill="none" stroke="grey" stroke-width="2" d="M256,-503.7C256,-495.98 256,-486.71 256,-478.11"/>
<polygon fill="grey" stroke="grey" stroke-width="2" points="259.5,-478.1 256,-468.1 252.5,-478.1 259.5,-478.1"/>
</g>
<!-- 12 -->
<g id="node13" class="node">
<title>12</title>
<path fill="none" stroke="#97d856" stroke-width="2" d="M96,-468C96,-468 12,-468 12,-468 6,-468 0,-462 0,-456 0,-456 0,-444 0,-444 0,-438 6,-432 12,-432 12,-432 96,-432 96,-432 102,-432 108,-438 108,-444 108,-444 108,-456 108,-456 108,-462 102,-468 96,-468"/>
<text text-anchor="middle" x="54" y="-447.5" font-family="sans" font-size="10.00">DASinputSemiBin2</text>
</g>
<!-- 12&#45;&gt;9 -->
<g id="edge17" class="edge">
<title>12&#45;&gt;9</title>
<path fill="none" stroke="grey" stroke-width="2" d="M93.14,-431.88C115.01,-422.31 142.46,-410.3 165.66,-400.15"/>
<polygon fill="grey" stroke="grey" stroke-width="2" points="167.23,-403.28 174.99,-396.07 164.42,-396.87 167.23,-403.28"/>
</g>
<!-- 13&#45;&gt;12 -->
<g id="edge22" class="edge">
<title>13&#45;&gt;12</title>
<path fill="none" stroke="grey" stroke-width="2" d="M55.76,-575.87C55.42,-551.67 54.79,-507.21 54.39,-478.39"/>
<polygon fill="grey" stroke="grey" stroke-width="2" points="57.88,-478.14 54.24,-468.19 50.88,-478.24 57.88,-478.14"/>
</g>
<!-- 14&#45;&gt;0 -->
<g id="edge4" class="edge">
<title>14&#45;&gt;0</title>
<path fill="none" stroke="grey" stroke-width="2" d="M288.63,-215.74C281.53,-205.79 273.21,-192.75 268,-180 249.74,-135.31 242.5,-79.07 239.7,-46.27"/>
<polygon fill="grey" stroke="grey" stroke-width="2" points="243.18,-45.79 238.91,-36.09 236.2,-46.33 243.18,-45.79"/>
</g>
<!-- 14&#45;&gt;16 -->
<g id="edge27" class="edge">
<title>14&#45;&gt;16</title>
<path fill="none" stroke="grey" stroke-width="2" d="M310.4,-215.7C314.27,-207.73 318.95,-198.1 323.24,-189.26"/>
<polygon fill="grey" stroke="grey" stroke-width="2" points="326.47,-190.63 327.69,-180.1 320.17,-187.57 326.47,-190.63"/>
</g>
<!-- 15 -->
<g id="node16" class="node">
<title>15</title>
<path fill="none" stroke="#d87d56" stroke-width="2" d="M380.5,-324C380.5,-324 295.5,-324 295.5,-324 289.5,-324 283.5,-318 283.5,-312 283.5,-312 283.5,-300 283.5,-300 283.5,-294 289.5,-288 295.5,-288 295.5,-288 380.5,-288 380.5,-288 386.5,-288 392.5,-294 392.5,-300 392.5,-300 392.5,-312 392.5,-312 392.5,-318 386.5,-324 380.5,-324"/>
<text text-anchor="middle" x="338" y="-303.5" font-family="sans" font-size="10.00">Checkm2Database</text>
</g>
<!-- 15&#45;&gt;14 -->
<g id="edge25" class="edge">
<title>15&#45;&gt;14</title>
<path fill="none" stroke="grey" stroke-width="2" d="M329.1,-287.7C325,-279.73 320.05,-270.1 315.51,-261.26"/>
<polygon fill="grey" stroke="grey" stroke-width="2" points="318.48,-259.4 310.8,-252.1 312.26,-262.6 318.48,-259.4"/>
</g>
<!-- 16&#45;&gt;0 -->
<g id="edge5" class="edge">
<title>16&#45;&gt;0</title>
<path fill="none" stroke="grey" stroke-width="2" d="M312.05,-143.94C300.02,-134.43 285.93,-121.75 276,-108 262.31,-89.04 252.27,-64.38 245.96,-45.83"/>
<polygon fill="grey" stroke="grey" stroke-width="2" points="249.26,-44.65 242.84,-36.22 242.6,-46.82 249.26,-44.65"/>
</g>
<!-- 17 -->
<g id="node18" class="node">
<title>17</title>
<path fill="none" stroke="#56a2d8" stroke-width="2" d="M383,-108C383,-108 297,-108 297,-108 291,-108 285,-102 285,-96 285,-96 285,-84 285,-84 285,-78 291,-72 297,-72 297,-72 383,-72 383,-72 389,-72 395,-78 395,-84 395,-84 395,-96 395,-96 395,-102 389,-108 383,-108"/>
<text text-anchor="middle" x="340" y="-87.5" font-family="sans" font-size="10.00">CloseCheckm2Fork</text>
</g>
<!-- 16&#45;&gt;17 -->
<g id="edge29" class="edge">
<title>16&#45;&gt;17</title>
<path fill="none" stroke="grey" stroke-width="2" d="M336.99,-143.7C337.43,-135.98 337.96,-126.71 338.45,-118.11"/>
<polygon fill="grey" stroke="grey" stroke-width="2" points="341.95,-118.29 339.02,-108.1 334.96,-117.89 341.95,-118.29"/>
</g>
<!-- 17&#45;&gt;0 -->
<g id="edge6" class="edge">
<title>17&#45;&gt;0</title>
<path fill="none" stroke="grey" stroke-width="2" d="M315.05,-71.88C301.96,-62.89 285.74,-51.76 271.56,-42.03"/>
<polygon fill="grey" stroke="grey" stroke-width="2" points="273.27,-38.96 263.05,-36.19 269.31,-44.73 273.27,-38.96"/>
</g>
</g>
</svg>
